<?xml version="1.0" standalone="no"?>
<!DOCTYPE svg PUBLIC "-//W3C//DTD SVG 20010904//EN"
 "http://www.w3.org/TR/2001/REC-SVG-20010904/DTD/svg10.dtd">
<svg version="1.0" xmlns="http://www.w3.org/2000/svg"
 width="48.000000pt" height="48.000000pt" viewBox="0 0 48.000000 48.000000"
 preserveAspectRatio="xMidYMid meet">
<metadata>
Created by potrace 1.13, written by Peter Selinger 2001-2015
</metadata>
<g transform="translate(0.000000,48.000000) scale(0.100000,-0.100000)"
fill="#000000" stroke="none">
<path d="M220 340 l0 -80 -80 0 c-64 0 -80 -3 -80 -15 0 -12 16 -15 80 -15
l80 0 0 -80 c0 -64 3 -80 15 -80 12 0 15 16 15 80 l0 80 80 0 c64 0 80 3 80
15 0 12 -16 15 -80 15 l-80 0 0 80 c0 64 -3 80 -15 80 -12 0 -15 -16 -15 -80z"/>
</g>
</svg>
